<svg xmlns="http://www.w3.org/2000/svg" viewBox="0 0 320 240" role="img" aria-label="Tegning af en kat">
  <defs>
    <linearGradient id="bg" x1="0" y1="0" x2="1" y2="1">
      <stop offset="0" stop-color="#a5b4fc"/>
      <stop offset="1" stop-color="#f0abfc"/>
    </linearGradient>
  </defs>
  <rect width="320" height="240" fill="url(#bg)"/>
  <polygon points="100,90 112,36 148,70" fill="#f59e0b"/>
  <polygon points="220,90 208,36 172,70" fill="#f59e0b"/>
  <ellipse cx="160" cy="130" rx="76" ry="66" fill="#fbbf24"/>
  <ellipse cx="136" cy="120" rx="9" ry="12" fill="#1f2937"/>
  <ellipse cx="184" cy="120" rx="9" ry="12" fill="#1f2937"/>
  <polygon points="152,142 168,142 160,152" fill="#f472b6"/>
  <path d="M160 152 q-10 14 -22 8 M160 152 q10 14 22 8" fill="none" stroke="#1f2937" stroke-width="3" stroke-linecap="round"/>
  <g stroke="#1f2937" stroke-width="2" stroke-linecap="round">
    <line x1="90" y1="146" x2="128" y2="150"/><line x1="90" y1="158" x2="128" y2="154"/>
    <line x1="230" y1="146" x2="192" y2="150"/><line x1="230" y1="158" x2="192" y2="154"/>
  </g>
</svg>
